<?xml version="1.0" encoding="UTF-8"?>
<svg id="Calque_2" data-name="Calque 2" xmlns="http://www.w3.org/2000/svg" viewBox="0 0 170.19 99.26">
  <g id="Calque_1-2" data-name="Calque 1">
    <g>
      <g>
        <path d="M170.19,49.51c-.03.24-.05.48-.05.72v37.77H0V10.29h170.15v39.22h.04Z" style="fill: #846556;"/>
        <path d="M121.09,17.6c8.63-1.14,16.23,7.06,13.45,15.52-.71,2.65-3.41,4.96-2.86,7.79,11.64,15.04,6.66,17.16,11.66,32.76,2.69,4.58,5.28,7.17-2.09,6.77-13.1-.37-29.41-3.95-33.33-18.29-1.7-5.03-7-2.34-10.82-1.99-11.61.55-17.87-13.89-8.23-21.16,1.29-1.57,10.84-3.3,7.42-5.62-5.89-2.93-14.61-1.26-18.73,3.76-8.09,6.8,4.42,14.32-8.89,14.17-5.98.18-13.92-.35-4.33-5.91,6.09-8.02,9.72-18.43,21.56-19.86,6.45-1.07,12.8,1.29,18.76,3.3,7.5,2.28,3.73-9.59,16.43-11.25Z" style="fill: #cdc1ae;"/>
        <path d="M48.22,56.52c-3.01,4.63,9.73,12.03-1.84,21.37-5.24,3.92-13.43,3.24-17.42-2.15-1.86-2.4-2.45-5.59-4.75-6.71-3.72-1.09-7.21,2.92-10.88,3.49-5.37,1.09-9.69,1.11-13.33.27v-7.45c4.46,1.61,9.54,1.63,13.02-.58,1.46-1.89-3.46-3.06-5.03-3.96-16.43-7.47-4.17-27.1,10.79-21.12,9.95,1.46,2.07-17.19,30.41-20.92,5.46-1.02,18.22-3.74,11.18,5.67-4.33,10.82-1.55,24.1-12.15,32.09Z" style="fill: #cdc1ae;"/>
        <path d="M77.2,79.76c-4.45,3.01-11.1.56-12.52-4.63-.97-2.78.5-6.24.08-8.44-1.44-5.02-8.37-4.84-12.13-7.03-1.96-1.13-1.74-2.63,0-2.93,5.38-.51,12.05,3.72,17.11,5.91,8.98,1.32,15.9,10.24,7.45,17.11Z" style="fill: #cdc1ae;"/>
        <path d="M170.13,65.4h0v7.43h0c-9.38-2.09-14.19-9.91-20.49-20.21-10.87-6.47,7.77-5.98,11.38-3.86,1.01.91.11,2.16-.2,3.3-1.61,6.25,3.31,11.23,9.31,13.34Z" style="fill: #cdc1ae;"/>
        <path d="M170.14,50.23v.52c0-.08,0-.16,0-.24,0-.09,0-.19,0-.28Z" style="fill: #cdc1ae;"/>
        <path d="M144.8,40.55c-2.02.95-11.08,3.77-9.79-.54,2.01-2.46,11.43-2.72,13.59-7.11.63-1.98-.36-3.97-.31-6.1-.47-5.92,5.69-10.23,11.07-8.14,5.74,2.03,7.12,10.48,2.15,14.12-5.46,2.77-11.42,4.47-16.71,7.76Z" style="fill: #cdc1ae;"/>
        <g>
          <rect width="170.15" height="11.3" style="fill: #cdc1ae;"/>
          <polygon points="18 0 8.29 11.48 27.71 11.48 18 0" style="fill: #846556;"/>
          <polygon points="36.98 0 27.27 11.48 46.69 11.48 36.98 0" style="fill: #846556;"/>
          <polygon points="18 0 8.29 11.48 27.71 11.48 18 0" style="fill: #846556;"/>
          <polygon points="36.98 0 27.27 11.48 46.69 11.48 36.98 0" style="fill: #846556;"/>
          <polygon points="56.08 0 46.37 11.48 65.8 11.48 56.08 0" style="fill: #846556;"/>
          <polygon points="75.06 0 65.35 11.48 84.78 11.48 75.06 0" style="fill: #846556;"/>
          <polygon points="93.88 0 84.16 11.48 103.59 11.48 93.88 0" style="fill: #846556;"/>
          <polygon points="112.86 0 103.14 11.48 122.57 11.48 112.86 0" style="fill: #846556;"/>
          <polygon points="131.96 0 122.25 11.48 141.67 11.48 131.96 0" style="fill: #846556;"/>
          <polygon points="150.94 0 141.23 11.48 160.65 11.48 150.94 0" style="fill: #846556;"/>
          <polygon points="170.15 .27 170.15 11.48 160.2 11.48 160.35 11.3 160.43 11.21 161.21 10.29 169.92 0 170.13 .25 170.14 .26 170.15 .27" style="fill: #846556;"/>
          <polygon points="9.71 11.48 0 11.48 0 0 8.7 10.29 9 10.64 9.56 11.3 9.71 11.48" style="fill: #846556;"/>
        </g>
        <g>
          <polygon points="170.14 87.96 170.14 99.25 170.13 99.26 0 99.26 0 87.96 170.14 87.96" style="fill: #cdc1ae;"/>
          <polygon points="18.21 99.26 8.5 87.78 27.93 87.78 18.21 99.26" style="fill: #846556;"/>
          <polygon points="37.19 99.26 27.48 87.78 46.91 87.78 37.19 99.26" style="fill: #846556;"/>
          <polygon points="18.21 99.26 8.5 87.78 27.93 87.78 18.21 99.26" style="fill: #846556;"/>
          <polygon points="37.19 99.26 27.48 87.78 46.91 87.78 37.19 99.26" style="fill: #846556;"/>
          <polygon points="56.3 99.26 46.58 87.78 66.01 87.78 56.3 99.26" style="fill: #846556;"/>
          <polygon points="75.28 99.26 65.56 87.78 84.99 87.78 75.28 99.26" style="fill: #846556;"/>
          <polygon points="94.09 99.26 84.38 87.78 103.8 87.78 94.09 99.26" style="fill: #846556;"/>
          <polygon points="113.07 99.26 103.35 87.78 122.78 87.78 113.07 99.26" style="fill: #846556;"/>
          <polygon points="132.17 99.26 122.46 87.78 141.89 87.78 132.17 99.26" style="fill: #846556;"/>
          <polygon points="151.15 99.26 141.44 87.78 160.87 87.78 151.15 99.26" style="fill: #846556;"/>
          <polygon points="170.14 87.78 170.14 99.25 170.13 99.26 160.64 88.05 160.61 88 160.57 87.96 160.42 87.78 170.14 87.78" style="fill: #846556;"/>
          <polygon points="9.92 87.78 9.77 87.96 9.73 88 9.21 88.62 .21 99.26 0 99.01 0 87.78 9.92 87.78" style="fill: #846556;"/>
        </g>
      </g>
      <rect width="170.13" height="99.26" style="fill: none;"/>
      <path d="M170.19,49.51c-.03.24-.05.48-.05.72V0h.01v49.51h.04Z" style="fill: none;"/>
    </g>
  </g>
</svg>